=-=-[This ultra-smooth 60 FPS release brought to you by thecrimsonking]=-=-=-=-=-=-=-=-=-=-

*** Recommend playing in Media Player Classic: Home Cinema ***
***      VLC tends to not handle 60 FPS as smoothly.       ***

UFC on FOX 7: Henderson vs. Melendez (April 20, 2013)

Benson Henderson vs. Gilbert Melendez
Frank Mir vs. Daniel Cormier
Nate Diaz vs. Josh Thomson
Matt Brown vs. Jordan Mein


This is my first release. Enjoy this great card!
                                    -thecrimsonking


=-=-[Technical details]=-=-=-=-=-=-=-=-=-=-=-=-=-=-=-=-=-=-=-=-=-=-=-=-=-=-=-=-=-=-=-=-=-=-

Video: MPEG4 Video (H264) 640x360 59.94fps 1692kbps [Video 0]
Audio: MP3 48000Hz stereo 192kbps [Audio 1]

General
Complete name                  : UFC_on_FOX_7_Henderson_vs_Melendez_April_20,_2013_[x264]_[60FPS]_[thecrimsonking].avi
Format                         : AVI
Format/Info                    : Audio Video Interleave
File size                      : 1.55 GiB
Duration                       : 1h 56mn
Overall bit rate               : 1 908 Kbps
Writing library                : VirtualDub build 32817/release

Video
ID                             : 0
Format                         : AVC
Format/Info                    : Advanced Video Codec
Format profile                 : High@L3.1
Format settings, CABAC         : Yes
Format settings, ReFrames      : 16 frames
Codec ID                       : H264
Duration                       : 1h 56mn
Bit rate                       : 1 700 Kbps
Width                          : 640 pixels
Height                         : 360 pixels
Display aspect ratio           : 16:9
Frame rate                     : 59.940 fps
Color space                    : YUV
Chroma subsampling             : 4:2:0
Bit depth                      : 8 bits
Scan type                      : Progressive
Bits/(Pixel*Frame)             : 0.123
Stream size                    : 1.38 GiB (89%)
Writing library                : x264 core 125 r2200bm 999b753
Encoding settings              : cabac=1 / ref=16 / deblock=1:0:0 / analyse=0x3:0x133 / me=umh / subme=10 / psy=1 / psy_rd=1.00:0.00 / mixed_ref=1 / me_range=24 / chroma_me=1 / trellis=2 / 8x8dct=1 / cqm=0 / deadzone=21,11 / fast_pskip=1 / chroma_qp_offset=-2 / threads=12 / lookahead_threads=2 / sliced_threads=0 / nr=0 / decimate=1 / interlaced=0 / bluray_compat=0 / constrained_intra=0 / bframes=8 / b_pyramid=2 / b_adapt=2 / b_bias=0 / direct=3 / weightb=1 / open_gop=0 / weightp=2 / keyint=250 / keyint_min=25 / scenecut=40 / intra_refresh=0 / rc_lookahead=60 / rc=abr / mbtree=1 / bitrate=1700 / ratetol=1.0 / qcomp=0.60 / qpmin=0 / qpmax=69 / qpstep=4 / ip_ratio=1.40 / aq=1:1.00

Audio
ID                             : 1
Format                         : MPEG Audio
Format version                 : Version 1
Format profile                 : Layer 3
Mode                           : Joint stereo
Codec ID                       : 55
Codec ID/Hint                  : MP3
Duration                       : 1h 56mn
Bit rate mode                  : Constant
Bit rate                       : 192 Kbps
Channel(s)                     : 2 channels
Sampling rate                  : 48.0 KHz
Compression mode               : Lossy
Stream size                    : 160 MiB (10%)
Alignment                      : Split accross interleaves
Interleave, duration           : 17 ms (1.00 video frame)
Interleave, preload duration   : 500 ms
